subject01_walk1_RRA_states
nRows=8
nColumns=47

# SIMM Motion File Header:
name subject01_walk1_RRA_states
datacolumns 47
datarows 8
otherdata 1
range 0.75000000000000000000 0.75000127000000005000
endheader
time	pelvis_tx	pelvis_ty	pelvis_tz	pelvis_tilt	pelvis_list	pelvis_rotation	hip_flexion_r	hip_adduction_r	hip_rotation_r	knee_angle_r	ankle_angle_r	subtalar_angle_r	mtp_angle_r	hip_flexion_l	hip_adduction_l	hip_rotation_l	knee_angle_l	ankle_angle_l	subtalar_angle_l	mtp_angle_l	lumbar_extension	lumbar_bending	lumbar_rotation	pelvis_tx_u	pelvis_ty_u	pelvis_tz_u	pelvis_tilt_u	pelvis_list_u	pelvis_rotation_u	hip_flexion_r_u	hip_adduction_r_u	hip_rotation_r_u	knee_angle_r_u	ankle_angle_r_u	subtalar_angle_r_u	mtp_angle_r_u	hip_flexion_l_u	hip_adduction_l_u	hip_rotation_l_u	knee_angle_l_u	ankle_angle_l_u	subtalar_angle_l_u	mtp_angle_l_u	lumbar_extension_u	lumbar_bending_u	lumbar_rotation_u
      0.75000000000000000000	      0.60235345251633499000	      1.01124984654619230000	      0.00744468739587418780	      4.46201824450743790000	      1.43634248237322980000	      3.41982279270198400000	     20.33336575139400900000	     -3.39610293145282370000	     -6.63296783415664400000	    -22.62419670270975300000	     -0.60412466512903240000	     -0.00027585091673583206	      0.00000048477393543806	    -15.97503802219224100000	      1.03001745170988860000	      4.24233440482455390000	    -32.15062386211823800000	      4.44372563592695440000	      0.00066140377850789668	     -0.00000018763635090095	    -15.53230697286801200000	      1.33872691713131830000	     -7.28363164864967240000	      0.11872099665877378000	      0.10596261304157698000	      0.18450594398673306000	      3.83657640800783950000	    -24.92490832618773300000	      4.03212406672475070000	    -47.41991785161701500000	     33.81918712000857100000	     -2.93441333488837760000	    -67.19111946588131400000	     52.57136470677194500000	      0.00132223861239988310	     -0.00000627780997979135	    159.58148698733021000000	    -50.38773289393625300000	    -68.46965939595165200000	   -378.47239043937606000000	   -193.53268644030260000000	      0.00353188199421212080	      0.00001479648585127961	      8.34042781354812130000	     43.58870166974480800000	     12.69420695505870500000
      0.75000001000000005000	      0.60235345370354487000	      1.01124984760581850000	      0.00744468924093367230	      4.46201828287319910000	      1.43634223312412650000	      3.41982283302321970000	     20.33336527719478000000	     -3.39610259326092300000	     -6.63296786350078000000	    -22.62419737462083400000	     -0.60412413941541487000	     -0.00027585090348840915	      0.00000048477399707730	    -15.97503642637729400000	      1.03001694783250870000	      4.24233372012790340000	    -32.15062764684220300000	      4.44372370060022260000	      0.00066140381388567649	     -0.00000018763647989797	    -15.53230688946373500000	      1.33872735301834410000	     -7.28363152170758350000	      0.11872097636171750000	      0.10596262257845079000	      0.18450595289349453000	      3.83657588272009460000	    -24.92491235916335100000	      4.03212305858508290000	    -47.41992757570115900000	     33.81919296913712000000	     -2.93441375130709230000	    -67.19109693040579100000	     52.57135879678362000000	      0.00132724596166230090	      0.00001860560593147394	    159.58150228376570000000	    -50.38774305016396900000	    -68.46967077062556900000	   -378.47240240996422000000	   -193.53265985654218000000	      0.00354367393221252660	     -0.00004059577516698368	      8.34042730153701760000	     43.58870348113379100000	     12.69421070318304600000
      0.75000003000000004000	      0.60235345607796398000	      1.01124984972507100000	      0.00744469293105290850	      4.46201835960470650000	      1.43634173462579850000	      3.41982291366566080000	     20.33336432879603400000	     -3.39610191687694660000	     -6.63296792218906360000	    -22.62419871844232600000	     -0.60412308798835712000	     -0.00027585087684334415	      0.00000048477486685219	    -15.97503323474694000000	      1.03001594007744450000	      4.24233235073425960000	    -32.15063521629048900000	      4.44371982994755670000	      0.00066140388499499121	     -0.00000018763839964628	    -15.53230672265520000000	      1.33872822479244990000	     -7.28363126782329570000	      0.11872093576759753000	      0.10596264165219781000	      0.18450597070703931000	      3.83657483214194880000	    -24.92492042512382300000	      4.03212104229823340000	    -47.41994702384263900000	     33.81920466741605900000	     -2.93441458414221980000	    -67.19105185953839100000	     52.57134697725693700000	      0.00133726050162564450	      0.00006837169796894952	    159.58153287663703000000	    -50.38776336263070700000	    -68.46969351998123400000	   -378.47242635107807000000	   -193.53260669004004000000	      0.00356725745634739770	     -0.00015137864190751908	      8.34042627751703770000	     43.58870710391924800000	     12.69421819944140000000
      0.75000007000000002000	      0.60235346082679975000	      1.01124985396357750000	      0.00744470031129244960	      4.46201851306765730000	      1.43634073762865880000	      3.41982307495042190000	     20.33336243199737600000	     -3.39610056410829220000	     -6.63296803956567960000	    -22.62420140608259400000	     -0.60412098513495083000	     -0.00027585082295235216	      0.00000048477959231857	    -15.97502685148440100000	      1.03001392456609750000	      4.24232961194560860000	    -32.15065035518849600000	      4.44371208864541600000	      0.00066140402862860902	     -0.00000018764888600544	    -15.53230638903819000000	      1.33872996834087910000	     -7.28363076005426710000	      0.11872085457932800000	      0.10596267979968935000	      0.18450600633421632000	      3.83657273097503420000	    -24.92493655708169000000	      4.03211700969447320000	    -47.41998592001830600000	     33.81922806406127100000	     -2.93441624980326270000	    -67.19096171813819800000	     52.57132334000342400000	      0.00135728894730803700	      0.00016790092290259982	    159.58159406238073000000	    -50.38780398760935200000	    -68.46973901872391400000	   -378.47247423305600000000	   -193.53250036111044000000	      0.00361442309715371110	     -0.00037293775420588123	      8.34042422948597210000	     43.58871434952015300000	     12.69423319199678200000
      0.75000014999999998000	      0.60235347032446163000	      1.01124986244059500000	      0.00744471507177580680	      4.46201881999330840000	      1.43633874363244370000	      3.41982339751946010000	     20.33335863839539200000	     -3.39609785856817540000	     -6.63296827431911320000	    -22.62420678135232100000	     -0.60411677943097442000	     -0.00027585071276703903	      0.00000048480098636542	    -15.97501408495197900000	      1.03000989353852850000	      4.24232413436284710000	    -32.15068063299026600000	      4.44369660605389250000	      0.00066140432155553446	     -0.00000018769644493807	    -15.53230572180441600000	      1.33873345543860660000	     -7.28362974451441140000	      0.11872069220267063000	      0.10596275609466253000	      0.18450607758892024000	      3.83656852859871340000	    -24.92496882114512500000	      4.03210894436671110000	    -47.42006371194054300000	     33.81927485770107500000	     -2.93441958108850410000	    -67.19078143667627500000	     52.57127607269583800000	      0.00139734330170905980	      0.00036694753619612169	    159.58171643387246000000	    -50.38788523774734800000	    -68.46983001633464000000	   -378.47256999601296000000	   -193.53228771955000000000	      0.00370874874891529310	     -0.00081602949408189781	      8.34042013345942830000	     43.58872884084188100000	     12.69426317726223800000
      0.75000031000000000000	      0.60235348931974642000	      1.01124987939464830000	      0.00744474459275962230	      4.46201943384359990000	      1.43633475563227010000	      3.41982404265560060000	     20.33335105117274800000	     -3.39609244747671070000	     -6.63296874382677880000	    -22.62421753184850500000	     -0.60410836803436385000	     -0.00027585048278404279	      0.00000048489154249641	    -15.97498855185777200000	      1.03000183146389030000	      4.24231317917548530000	    -32.15074118861678400000	      4.44366564092187670000	      0.00066140493004604353	     -0.00000018789789777285	    -15.53230438733785200000	      1.33874042963753980000	     -7.28362771342750470000	      0.11872036744888262000	      0.10596290868456933000	      0.18450622009972759000	      3.83656012367610620000	    -24.92503334986278300000	      4.03209281323022230000	    -47.42021929406854500000	     33.81936844637820600000	     -2.93442624351161240000	    -67.19042087910621300000	     52.57118156687850800000	      0.00147744186276331880	      0.00076499341641899699	    159.58196117687311000000	    -50.38804773874618800000	    -68.47001201205758000000	   -378.47276151793108000000	   -193.53186250162409000000	      0.00389737753305554550	     -0.00170210703503153710	      8.34041194154869100000	     43.58875782396504700000	     12.69432314841193900000
      0.75000063000000006000	      0.60235352731016012000	      1.01124991330282790000	      0.00744480363479565860	      4.46202066154014960000	      1.43632677960094850000	      3.41982533292013850000	     20.33333587665278900000	     -3.39608162524885900000	     -6.63296968284530930000	    -22.62423903266781300000	     -0.60409154528648989000	     -0.00027584998437614792	      0.00000048526369155559	    -15.97493748555187800000	      1.02998570723661340000	      4.24229126871340250000	    -32.15086229996175100000	      4.44360371086191370000	      0.00066140623755688011	     -0.00000018872606421962	    -15.53230171840865400000	      1.33875437804931830000	     -7.28362365122490550000	      0.11871971793941349000	      0.10596321386422461000	      0.18450650512694020000	      3.83654331315104980000	    -24.92516240966123000000	      4.03206054903340760000	    -47.42053045145882400000	     33.81955562932244400000	     -2.93443956776834320000	    -67.18969978538125100000	     52.57099267043548700000	      0.00163759839473869710	      0.00156089579085604870	    159.58245066294324000000	    -50.38837274363518800000	    -68.47037600550930800000	   -378.47314454578384000000	   -193.53101232655212000000	      0.00427454502397440600	     -0.00347383836236429300	      8.34039555829658670000	     43.58881579213016300000	     12.69444309318644800000
      0.75000127000000005000	      0.60235360329036391000	      1.01124998111948020000	      0.00744492171914136300	      4.46202311691711100000	      1.43631082741440560000	      3.41982791341823900000	     20.33330552731416700000	     -3.39605998061345330000	     -6.63297156089515920000	    -22.62428203361419700000	     -0.60405789997195991000	     -0.00027584883385336107	      0.00000048677185404517	    -15.97483535247018200000	      1.02995345847005140000	      4.24224744743980150000	    -32.15110452301938400000	      4.44347985155787660000	      0.00066140921456331195	     -0.00000019208280741620	    -15.53229638056598100000	      1.33878227492852670000	     -7.28361552670455840000	      0.11871841891290315000	      0.10596382422290214000	      0.18450707520375667000	      3.83650968938172280000	    -24.92542053871041600000	      4.03199601294459240000	    -47.42115273877690400000	     33.81993001757042100000	     -2.93446621392399850000	    -67.18825768359120300000	     52.57061533831893000000	      0.00195774910502077460	      0.00315194299128028790	    159.58342963535856000000	    -50.38902276497827200000	    -68.47110400043553100000	   -378.47391053755518000000	   -193.52931301952600000000	      0.00502851969772394410	     -0.00701560600390003890	      8.34036279406972450000	     43.58893173613542900000	     12.69468299263567300000
